<svg width="129" height="43" viewBox="0 0 129 43" fill="none" xmlns="http://www.w3.org/2000/svg">
<g clip-path="url(#clip0_10_2903)">
<path d="M52.6765 34.1709V29.1772H57.9276V28.0532H52.6765V24.906H58.955V23.7659H51.3718V34.1709H52.6765ZM63.2244 34.3315C64.3659 34.3315 65.2194 33.8765 65.7847 32.9666V34.1709H67.0241V26.3511H65.7847V30.7026C65.7847 31.4519 65.5727 32.046 65.1487 32.4849C64.7247 32.9238 64.1865 33.1433 63.5342 33.1433C62.1752 33.1433 61.4957 32.4046 61.4957 30.9274V26.3511H60.2563V31.1843C60.2563 32.1156 60.5091 32.873 61.0146 33.4564C61.5202 34.0398 62.2568 34.3315 63.2244 34.3315ZM70.9836 34.1709V29.7873C70.9836 29.0915 71.2174 28.5161 71.6849 28.0612C72.1524 27.6062 72.7123 27.3788 73.3646 27.3788C74.0821 27.3788 74.5958 27.5661 74.9057 27.9408C75.2155 28.3154 75.3705 28.8667 75.3705 29.5946V34.1709H76.6099V29.402C76.6099 28.385 76.3652 27.5955 75.876 27.0335C75.3868 26.4715 74.6583 26.1905 73.6907 26.1905C72.4839 26.1905 71.5816 26.6615 70.9836 27.6036V26.3511H69.7442V34.1709H70.9836ZM82.5915 34.3315C83.2004 34.3315 83.7521 34.2003 84.2468 33.9381C84.7415 33.6758 85.141 33.3092 85.4454 32.8382V34.1709H86.6848V23.6053H85.4454V27.6999C85.141 27.2289 84.7388 26.8596 84.2386 26.592C83.7385 26.3243 83.1895 26.1905 82.5915 26.1905C81.5043 26.1905 80.5938 26.5866 79.8599 27.3788C79.1261 28.1709 78.7592 29.1343 78.7592 30.269C78.7592 31.393 79.1261 32.3511 79.8599 33.1433C80.5938 33.9354 81.5043 34.3315 82.5915 34.3315ZM82.7546 33.1433C81.9827 33.1433 81.3358 32.8676 80.814 32.3163C80.2921 31.765 80.0312 31.0826 80.0312 30.269C80.0312 29.4555 80.2921 28.7704 80.814 28.2137C81.3358 27.6571 81.9827 27.3788 82.7546 27.3788C83.5157 27.3788 84.1544 27.6571 84.6708 28.2137C85.1872 28.7704 85.4454 29.4555 85.4454 30.269C85.4454 31.104 85.1872 31.7918 84.6708 32.3324C84.1544 32.873 83.5157 33.1433 82.7546 33.1433ZM90.0409 25.0505C90.2692 25.0505 90.4622 24.9702 90.6199 24.8096C90.7775 24.6491 90.8563 24.4617 90.8563 24.2476C90.8563 24.0228 90.7775 23.8301 90.6199 23.6696C90.4622 23.509 90.2692 23.4287 90.0409 23.4287C89.8126 23.4287 89.6196 23.509 89.462 23.6696C89.3043 23.8301 89.2255 24.0228 89.2255 24.2476C89.2255 24.4617 89.3043 24.6491 89.462 24.8096C89.6196 24.9702 89.8126 25.0505 90.0409 25.0505ZM90.6443 34.1709V26.3511H89.4049V34.1709H90.6443ZM94.6038 34.1709V29.7873C94.6038 29.0915 94.8375 28.5161 95.305 28.0612C95.7725 27.6062 96.3324 27.3788 96.9848 27.3788C97.7023 27.3788 98.216 27.5661 98.5259 27.9408C98.8357 28.3154 98.9906 28.8667 98.9906 29.5946V34.1709H100.23V29.402C100.23 28.385 99.9854 27.5955 99.4962 27.0335C99.007 26.4715 98.2785 26.1905 97.3109 26.1905C96.1041 26.1905 95.2018 26.6615 94.6038 27.6036V26.3511H93.3644V34.1709H94.6038ZM106.277 36.5313C106.538 36.5313 106.821 36.5019 107.125 36.443C107.429 36.3841 107.777 36.261 108.169 36.0737C108.56 35.8863 108.908 35.6508 109.212 35.3672C109.517 35.0835 109.775 34.6847 109.987 34.1709C110.199 33.6571 110.305 33.0737 110.305 32.4207V26.3511H109.066V27.6999C108.435 26.6937 107.484 26.1905 106.212 26.1905C105.114 26.1905 104.2 26.5491 103.472 27.2664C102.744 27.9836 102.379 28.8828 102.379 29.964C102.379 31.0558 102.744 31.9657 103.472 32.6937C104.2 33.4216 105.114 33.7855 106.212 33.7855C106.821 33.7855 107.372 33.6571 107.867 33.4002C108.362 33.1433 108.761 32.7739 109.066 32.2922V32.6294C109.066 33.1218 108.979 33.5581 108.805 33.9381C108.631 34.3181 108.427 34.6018 108.193 34.7891C107.959 34.9764 107.693 35.129 107.394 35.2467C107.095 35.3645 106.859 35.4367 106.685 35.4635C106.511 35.4903 106.364 35.5037 106.244 35.5037C105.244 35.5037 104.412 35.1772 103.749 34.5242L103.13 35.327C103.967 36.1299 105.016 36.5313 106.277 36.5313ZM106.326 32.5973C105.554 32.5973 104.915 32.3591 104.41 31.8828C103.904 31.4064 103.651 30.7936 103.651 30.0442C103.651 29.2628 103.904 28.6232 104.41 28.1254C104.915 27.6276 105.554 27.3788 106.326 27.3788C107.098 27.3788 107.734 27.6276 108.234 28.1254C108.734 28.6232 108.984 29.2628 108.984 30.0442C108.984 30.7936 108.734 31.4064 108.234 31.8828C107.734 32.3591 107.098 32.5973 106.326 32.5973Z" fill="white"/>
<path fill-rule="evenodd" clip-rule="evenodd" d="M86.1143 8.26024C89.322 8.26024 91.8505 10.6918 91.8505 13.7494C91.8505 16.807 89.322 19.2294 86.1143 19.2294C82.9242 19.2294 80.3956 16.807 80.3956 13.7494C80.3956 10.6918 82.9242 8.26024 86.1143 8.26024ZM123.73 8.26024C126.64 8.26024 128.931 10.7081 128.931 13.7077C128.931 13.738 128.931 13.7684 128.931 13.7987L128.929 13.8893C128.918 14.3246 128.873 14.7184 128.873 14.7184H121.1C121.439 16.1719 122.661 16.866 124.07 16.866C125.105 16.866 126.173 16.5729 126.963 16.0467L128.032 18.0681C126.836 18.8457 125.444 19.2294 124.052 19.2294C120.93 19.2294 118.19 17.2243 118.19 13.7494C118.19 10.7081 120.582 8.26024 123.73 8.26024ZM109.67 8.47734L111.654 13.8912C112.062 14.9935 112.409 16.0887 112.451 16.2302C112.465 16.1175 112.7 15.3685 112.991 14.5495L113.032 14.4348C113.074 14.3198 113.116 14.2039 113.159 14.0887L113.202 13.9738L113.223 13.9166L115.209 8.47734H118.06L113.844 19.0374H111.018L106.801 8.47734H109.67ZM97.1487 5.84573V8.47785H100.101V10.7497H97.1487V16.3559H100.077L100.081 19.0185H94.2687L94.2708 10.7497H92.7109V8.47785H94.2708V5.84573H97.1487ZM74.893 8.40447C77.6809 8.40447 78.6527 10.1735 78.6527 13.0234V19.0164H75.8213V13.3776C75.8213 11.859 75.4202 11.0478 73.9833 11.0478C72.5681 11.0478 71.616 12.1704 71.616 13.7522V19.0164H68.7846V8.61312H71.553V10.0065C72.3986 8.86249 73.6029 8.40447 74.893 8.40447ZM61.8922 5.35259V7.88395H54.5103V10.6657H60.8068V13.1726H54.5103V19.0129H51.5062V5.35259H61.8922ZM66.557 8.47734V19.0129H63.6894V8.47734H66.557ZM105.063 8.47734V19.0129H102.195V8.47734H105.063ZM86.1143 10.8751C84.511 10.8751 83.3056 12.1036 83.3056 13.7494C83.3056 15.4115 84.511 16.6146 86.1143 16.6146C87.7186 16.6146 88.9147 15.4115 88.9147 13.7494C88.9147 12.1036 87.7186 10.8751 86.1143 10.8751ZM123.645 10.6247C122.406 10.6247 121.329 11.5102 121.057 12.8385H126.233C126.021 11.5102 124.953 10.6247 123.645 10.6247ZM105.063 5.25488V7.47783H102.195V5.25488H105.063ZM66.557 5.27117V7.45951H63.6894V5.27117H66.557Z" fill="#FFFFFE"/>
<path fill-rule="evenodd" clip-rule="evenodd" d="M21.5441 0L26.6073 4.98738L10.1327 21.118L21.603 32.4668L24.0685 30.0749L14.983 21.0864L29.08 7.27445L34.1505 12.2598L25.1239 21.1017L34.2094 30.0953L21.5627 42.4447L0 21.1088L21.5441 0ZM21.54 2.67181L2.71563 21.1149L21.572 39.7739L31.4928 30.0851L22.4093 21.0956L31.4297 12.2567L29.078 9.94321L17.6986 21.0926L26.7903 30.0882L21.5896 35.1346L7.41706 21.1119L23.8886 4.98433L21.54 2.67181Z" fill="#00C992"/>
</g>
<defs>
<clipPath id="clip0_10_2903">
<rect width="129" height="43" fill="white"/>
</clipPath>
</defs>
</svg>
